<?xml version="1.0" encoding="UTF-8"?><svg xmlns="http://www.w3.org/2000/svg" viewBox="0 0 127.8 100.5"><defs><style>.d{fill:#1d1d1b;}</style></defs><g id="a"/><g id="b"><g id="c"><g><path class="d" d="M14.1,100.5L0,83.1c8.2-3.6,14.75-8.2,19.65-13.8,4.9-5.6,7.35-10.4,7.35-14.4,0-1.8-.45-3.7-1.35-5.7-.9-2-3.15-4.3-6.75-6.9-4.8-3.4-8.05-6.8-9.75-10.2-1.7-3.4-2.55-7.2-2.55-11.4,0-6.4,2.35-11.45,7.05-15.15C18.35,1.85,24.4,0,31.8,0c9,0,16.5,3.55,22.5,10.65,6,7.1,9,16.25,9,27.45,0,9-2.1,17.75-6.3,26.25-4.2,8.5-10,15.95-17.4,22.35-7.4,6.4-15.9,11-25.5,13.8Z"/><path class="d" d="M78.6,100.5l-14.1-17.4c8.2-3.6,14.75-8.2,19.65-13.8,4.9-5.6,7.35-10.4,7.35-14.4,0-1.8-.45-3.7-1.35-5.7-.9-2-3.15-4.3-6.75-6.9-4.8-3.4-8.05-6.8-9.75-10.2-1.7-3.4-2.55-7.2-2.55-11.4,0-6.4,2.35-11.45,7.05-15.15,4.7-3.7,10.75-5.55,18.15-5.55,9,0,16.5,3.55,22.5,10.65,6,7.1,9,16.25,9,27.45,0,9-2.1,17.75-6.3,26.25-4.2,8.5-10,15.95-17.4,22.35-7.4,6.4-15.9,11-25.5,13.8Z"/></g></g></g></svg>